<svg xmlns="http://www.w3.org/2000/svg" xmlns:xlink="http://www.w3.org/1999/xlink" width="300" zoomAndPan="magnify" viewBox="0 0 224.87999 44.999999" height="60" preserveAspectRatio="xMidYMid meet" version="1.0"><defs><g/><clipPath id="5d48e5e6d8"><path d="M 21.324219 4.507812 L 43 4.507812 L 43 38.992188 L 21.324219 38.992188 Z M 21.324219 4.507812 " clip-rule="nonzero"/></clipPath></defs><g fill="#000000" fill-opacity="1"><g transform="translate(46.629465, 33.875997)"><g><path d="M 13.828125 -17.828125 L 16.78125 -17.828125 L 16.78125 0 L 14.1875 0 L 14.1875 -10.65625 L 10.21875 0 L 7.4375 0 L 3.515625 -10.578125 L 3.515625 0 L 0.90625 0 L 0.90625 -17.828125 L 3.84375 -17.828125 L 8.8125 -3.734375 Z M 13.828125 -17.828125 "/></g></g></g><g fill="#000000" fill-opacity="1"><g transform="translate(63.09908, 33.875997)"><g><path d="M 4.265625 -12.921875 L 4.265625 0 L 1.40625 0 L 1.40625 -12.921875 Z M 4.75 -15.90625 C 4.75 -15.363281 4.5625 -14.90625 4.1875 -14.53125 C 3.820312 -14.164062 3.367188 -13.984375 2.828125 -13.984375 C 2.296875 -13.984375 1.84375 -14.164062 1.46875 -14.53125 C 1.09375 -14.90625 0.90625 -15.363281 0.90625 -15.90625 C 0.90625 -16.4375 1.09375 -16.890625 1.46875 -17.265625 C 1.84375 -17.640625 2.296875 -17.828125 2.828125 -17.828125 C 3.367188 -17.828125 3.820312 -17.640625 4.1875 -17.265625 C 4.5625 -16.890625 4.75 -16.4375 4.75 -15.90625 Z M 4.75 -15.90625 "/></g></g></g><g fill="#000000" fill-opacity="1"><g transform="translate(67.540714, 33.875997)"><g><path d="M 6.890625 -13.203125 C 7.785156 -13.203125 8.535156 -12.972656 9.140625 -12.515625 C 9.753906 -12.054688 10.210938 -11.457031 10.515625 -10.71875 C 10.828125 -9.976562 10.984375 -9.203125 10.984375 -8.390625 L 10.984375 0 L 8.140625 0 L 8.140625 -8.390625 C 8.140625 -8.648438 8.101562 -8.929688 8.03125 -9.234375 C 7.957031 -9.535156 7.828125 -9.796875 7.640625 -10.015625 C 7.460938 -10.234375 7.210938 -10.34375 6.890625 -10.34375 C 6.296875 -10.34375 5.710938 -10.21875 5.140625 -9.96875 C 4.566406 -9.726562 4.109375 -9.398438 3.765625 -8.984375 L 3.765625 0 L 0.90625 0 L 0.90625 -12.921875 L 3.515625 -12.921875 L 3.765625 -12.109375 C 4.210938 -12.441406 4.703125 -12.707031 5.234375 -12.90625 C 5.773438 -13.101562 6.328125 -13.203125 6.890625 -13.203125 Z M 6.890625 -13.203125 "/></g></g></g><g fill="#000000" fill-opacity="1"><g transform="translate(78.217148, 33.875997)"><g><path d="M 4.265625 -12.921875 L 4.265625 0 L 1.40625 0 L 1.40625 -12.921875 Z M 4.75 -15.90625 C 4.75 -15.363281 4.5625 -14.90625 4.1875 -14.53125 C 3.820312 -14.164062 3.367188 -13.984375 2.828125 -13.984375 C 2.296875 -13.984375 1.84375 -14.164062 1.46875 -14.53125 C 1.09375 -14.90625 0.90625 -15.363281 0.90625 -15.90625 C 0.90625 -16.4375 1.09375 -16.890625 1.46875 -17.265625 C 1.84375 -17.640625 2.296875 -17.828125 2.828125 -17.828125 C 3.367188 -17.828125 3.820312 -17.640625 4.1875 -17.265625 C 4.5625 -16.890625 4.75 -16.4375 4.75 -15.90625 Z M 4.75 -15.90625 "/></g></g></g><g fill="#000000" fill-opacity="1"><g transform="translate(82.658782, 33.875997)"><g><path d="M 6.46875 -13.203125 C 7.351562 -13.203125 8.148438 -13.007812 8.859375 -12.625 C 9.566406 -12.25 10.171875 -11.734375 10.671875 -11.078125 C 11.179688 -10.429688 11.566406 -9.707031 11.828125 -8.90625 C 12.097656 -8.113281 12.234375 -7.3125 12.234375 -6.5 C 12.234375 -5.6875 12.097656 -4.875 11.828125 -4.0625 C 11.566406 -3.257812 11.179688 -2.53125 10.671875 -1.875 C 10.171875 -1.21875 9.566406 -0.691406 8.859375 -0.296875 C 8.148438 0.0859375 7.351562 0.28125 6.46875 0.28125 C 5.738281 0.28125 5.148438 0.09375 4.703125 -0.28125 C 4.253906 -0.664062 3.941406 -1.015625 3.765625 -1.328125 L 3.515625 0 L 0.90625 0 L 0.90625 -17.828125 L 3.765625 -17.828125 L 3.765625 -11.640625 C 4.109375 -12.179688 4.523438 -12.578125 5.015625 -12.828125 C 5.503906 -13.078125 5.988281 -13.203125 6.46875 -13.203125 Z M 6.46875 -2.578125 C 7.113281 -2.578125 7.625 -2.785156 8 -3.203125 C 8.382812 -3.628906 8.664062 -4.144531 8.84375 -4.75 C 9.03125 -5.363281 9.125 -5.945312 9.125 -6.5 C 9.125 -7.050781 9.03125 -7.617188 8.84375 -8.203125 C 8.664062 -8.796875 8.382812 -9.300781 8 -9.71875 C 7.625 -10.132812 7.113281 -10.34375 6.46875 -10.34375 C 6.019531 -10.34375 5.625 -10.21875 5.28125 -9.96875 C 4.945312 -9.71875 4.664062 -9.429688 4.4375 -9.109375 C 4.21875 -8.785156 4.050781 -8.503906 3.9375 -8.265625 C 3.820312 -8.035156 3.765625 -7.929688 3.765625 -7.953125 L 3.765625 -4.96875 C 3.765625 -4.945312 3.816406 -4.8125 3.921875 -4.5625 C 4.023438 -4.320312 4.1875 -4.046875 4.40625 -3.734375 C 4.632812 -3.429688 4.914062 -3.160156 5.25 -2.921875 C 5.59375 -2.691406 6 -2.578125 6.46875 -2.578125 Z M 6.46875 -2.578125 "/></g></g></g><g fill="#000000" fill-opacity="1"><g transform="translate(94.582186, 33.875997)"><g><path d="M 5.015625 0.28125 C 4.109375 0.28125 3.351562 0.0507812 2.75 -0.40625 C 2.144531 -0.863281 1.6875 -1.457031 1.375 -2.1875 C 1.0625 -2.925781 0.90625 -3.703125 0.90625 -4.515625 L 0.90625 -12.921875 L 3.765625 -12.921875 L 3.765625 -4.515625 C 3.765625 -4.253906 3.796875 -3.972656 3.859375 -3.671875 C 3.929688 -3.367188 4.054688 -3.109375 4.234375 -2.890625 C 4.421875 -2.679688 4.679688 -2.578125 5.015625 -2.578125 C 5.597656 -2.578125 6.175781 -2.695312 6.75 -2.9375 C 7.320312 -3.175781 7.785156 -3.503906 8.140625 -3.921875 L 8.140625 -12.921875 L 10.984375 -12.921875 L 10.984375 0 L 8.390625 0 L 8.140625 -0.8125 C 7.679688 -0.476562 7.179688 -0.210938 6.640625 -0.015625 C 6.109375 0.179688 5.566406 0.28125 5.015625 0.28125 Z M 5.015625 0.28125 "/></g></g></g><g fill="#000000" fill-opacity="1"><g transform="translate(105.258621, 33.875997)"><g><path d="M 6.109375 0.28125 C 4.960938 0.28125 3.957031 -0.0234375 3.09375 -0.640625 C 2.226562 -1.265625 1.5 -2.046875 0.90625 -2.984375 L 3.09375 -4.5 C 3.40625 -3.988281 3.828125 -3.539062 4.359375 -3.15625 C 4.898438 -2.769531 5.484375 -2.578125 6.109375 -2.578125 C 6.453125 -2.578125 6.785156 -2.695312 7.109375 -2.9375 C 7.429688 -3.175781 7.59375 -3.519531 7.59375 -3.96875 C 7.59375 -4.28125 7.4375 -4.535156 7.125 -4.734375 C 6.820312 -4.941406 6.429688 -5.125 5.953125 -5.28125 C 5.484375 -5.445312 4.972656 -5.625 4.421875 -5.8125 C 3.878906 -6.007812 3.367188 -6.25 2.890625 -6.53125 C 2.421875 -6.820312 2.03125 -7.1875 1.71875 -7.625 C 1.414062 -8.0625 1.265625 -8.617188 1.265625 -9.296875 C 1.265625 -10.097656 1.476562 -10.785156 1.90625 -11.359375 C 2.332031 -11.941406 2.882812 -12.394531 3.5625 -12.71875 C 4.238281 -13.039062 4.945312 -13.203125 5.6875 -13.203125 C 6.78125 -13.203125 7.726562 -12.910156 8.53125 -12.328125 C 9.34375 -11.742188 9.957031 -10.960938 10.375 -9.984375 L 8 -8.828125 C 7.8125 -9.265625 7.5 -9.625 7.0625 -9.90625 C 6.632812 -10.195312 6.175781 -10.34375 5.6875 -10.34375 C 5.394531 -10.34375 5.101562 -10.21875 4.8125 -9.96875 C 4.53125 -9.71875 4.390625 -9.410156 4.390625 -9.046875 C 4.390625 -8.835938 4.539062 -8.65625 4.84375 -8.5 C 5.144531 -8.351562 5.535156 -8.207031 6.015625 -8.0625 C 6.492188 -7.914062 7 -7.742188 7.53125 -7.546875 C 8.070312 -7.347656 8.578125 -7.085938 9.046875 -6.765625 C 9.523438 -6.441406 9.914062 -6.035156 10.21875 -5.546875 C 10.519531 -5.066406 10.671875 -4.457031 10.671875 -3.71875 C 10.671875 -2.863281 10.453125 -2.140625 10.015625 -1.546875 C 9.585938 -0.953125 9.023438 -0.5 8.328125 -0.1875 C 7.640625 0.125 6.898438 0.28125 6.109375 0.28125 Z M 6.109375 0.28125 "/></g></g></g><g fill="#000000" fill-opacity="1"><g transform="translate(115.623324, 33.875997)"><g/></g></g><g fill="#ff0000" fill-opacity="1"><g transform="translate(120.898421, 33.875997)"><g><path d="M 13.875 -10.375 L 13.875 -7.515625 L 8.8125 -7.515625 L 8.8125 -2.4375 L 5.953125 -2.4375 L 5.953125 -7.515625 L 0.90625 -7.515625 L 0.90625 -10.375 L 5.953125 -10.375 L 5.953125 -15.375 L 8.8125 -15.375 L 8.8125 -10.375 Z M 13.875 -10.375 "/></g></g></g><g fill="#000000" fill-opacity="1"><g transform="translate(134.461495, 33.875997)"><g/></g></g><g fill="#000000" fill-opacity="1"><g transform="translate(139.734442, 33.875997)"><g><path d="M 0.90625 -17.828125 L 6.3125 -17.828125 C 7.476562 -17.828125 8.519531 -17.5625 9.4375 -17.03125 C 10.351562 -16.5 11.128906 -15.800781 11.765625 -14.9375 C 12.410156 -14.070312 12.898438 -13.113281 13.234375 -12.0625 C 13.578125 -11.019531 13.75 -9.96875 13.75 -8.90625 C 13.75 -7.851562 13.578125 -6.800781 13.234375 -5.75 C 12.898438 -4.707031 12.410156 -3.75 11.765625 -2.875 C 11.128906 -2.007812 10.351562 -1.3125 9.4375 -0.78125 C 8.519531 -0.257812 7.476562 0 6.3125 0 L 0.90625 0 Z M 3.765625 -2.859375 L 6.3125 -2.859375 C 7.0625 -2.859375 7.703125 -3.046875 8.234375 -3.421875 C 8.773438 -3.804688 9.222656 -4.304688 9.578125 -4.921875 C 9.929688 -5.535156 10.191406 -6.191406 10.359375 -6.890625 C 10.535156 -7.597656 10.625 -8.269531 10.625 -8.90625 C 10.625 -9.53125 10.535156 -10.191406 10.359375 -10.890625 C 10.191406 -11.597656 9.929688 -12.257812 9.578125 -12.875 C 9.222656 -13.488281 8.773438 -13.984375 8.234375 -14.359375 C 7.703125 -14.742188 7.0625 -14.9375 6.3125 -14.9375 L 3.765625 -14.9375 Z M 3.765625 -2.859375 "/></g></g></g><g fill="#000000" fill-opacity="1"><g transform="translate(153.164583, 33.875997)"><g><path d="M 3.765625 -12.921875 L 3.765625 -11.640625 C 4.003906 -11.953125 4.332031 -12.222656 4.75 -12.453125 C 5.164062 -12.691406 5.625 -12.875 6.125 -13 C 6.632812 -13.132812 7.113281 -13.203125 7.5625 -13.203125 L 7.5625 -10.34375 C 6.78125 -10.34375 6.054688 -10.160156 5.390625 -9.796875 C 4.722656 -9.429688 4.179688 -8.9375 3.765625 -8.3125 L 3.765625 0 L 0.90625 0 L 0.90625 -12.921875 Z M 3.765625 -12.921875 "/></g></g></g><g fill="#000000" fill-opacity="1"><g transform="translate(160.411875, 33.875997)"><g><path d="M 4.265625 -12.921875 L 4.265625 0 L 1.40625 0 L 1.40625 -12.921875 Z M 4.75 -15.90625 C 4.75 -15.363281 4.5625 -14.90625 4.1875 -14.53125 C 3.820312 -14.164062 3.367188 -13.984375 2.828125 -13.984375 C 2.296875 -13.984375 1.84375 -14.164062 1.46875 -14.53125 C 1.09375 -14.90625 0.90625 -15.363281 0.90625 -15.90625 C 0.90625 -16.4375 1.09375 -16.890625 1.46875 -17.265625 C 1.84375 -17.640625 2.296875 -17.828125 2.828125 -17.828125 C 3.367188 -17.828125 3.820312 -17.640625 4.1875 -17.265625 C 4.5625 -16.890625 4.75 -16.4375 4.75 -15.90625 Z M 4.75 -15.90625 "/></g></g></g><g fill="#000000" fill-opacity="1"><g transform="translate(164.853508, 33.875997)"><g><path d="M 7.59375 0 L 4.625 0 L 0.90625 -12.921875 L 3.875 -12.921875 L 6.109375 -5.28125 L 8.34375 -12.921875 L 11.296875 -12.921875 Z M 7.59375 0 "/></g></g></g><g fill="#000000" fill-opacity="1"><g transform="translate(175.841685, 33.875997)"><g><path d="M 6.34375 0.28125 C 5.351562 0.28125 4.507812 0.09375 3.8125 -0.28125 C 3.125 -0.664062 2.566406 -1.179688 2.140625 -1.828125 C 1.710938 -2.484375 1.398438 -3.207031 1.203125 -4 C 1.003906 -4.800781 0.90625 -5.613281 0.90625 -6.4375 C 0.90625 -7.289062 1.003906 -8.117188 1.203125 -8.921875 C 1.398438 -9.734375 1.71875 -10.457031 2.15625 -11.09375 C 2.59375 -11.738281 3.15625 -12.25 3.84375 -12.625 C 4.539062 -13.007812 5.378906 -13.203125 6.359375 -13.203125 C 7.390625 -13.203125 8.28125 -12.945312 9.03125 -12.4375 C 9.78125 -11.9375 10.375 -11.285156 10.8125 -10.484375 C 11.257812 -9.679688 11.53125 -8.804688 11.625 -7.859375 C 11.71875 -6.910156 11.617188 -6.003906 11.328125 -5.140625 L 4.078125 -5.140625 C 4.148438 -4.460938 4.351562 -3.867188 4.6875 -3.359375 C 5.03125 -2.847656 5.582031 -2.59375 6.34375 -2.59375 C 6.71875 -2.59375 7.097656 -2.679688 7.484375 -2.859375 C 7.878906 -3.046875 8.226562 -3.285156 8.53125 -3.578125 C 8.832031 -3.878906 9.035156 -4.203125 9.140625 -4.546875 L 11.59375 -3.609375 C 11.34375 -2.878906 10.945312 -2.21875 10.40625 -1.625 C 9.875 -1.039062 9.257812 -0.578125 8.5625 -0.234375 C 7.863281 0.109375 7.125 0.28125 6.34375 0.28125 Z M 4.125 -8 L 8.734375 -8 C 8.609375 -8.707031 8.316406 -9.28125 7.859375 -9.71875 C 7.398438 -10.15625 6.9375 -10.375 6.46875 -10.375 C 5.738281 -10.375 5.1875 -10.140625 4.8125 -9.671875 C 4.445312 -9.203125 4.21875 -8.644531 4.125 -8 Z M 4.125 -8 "/></g></g></g><g fill="#000000" fill-opacity="1"><g transform="translate(187.193556, 33.875997)"><g><path d="M 3.765625 -12.921875 L 3.765625 -11.640625 C 4.003906 -11.953125 4.332031 -12.222656 4.75 -12.453125 C 5.164062 -12.691406 5.625 -12.875 6.125 -13 C 6.632812 -13.132812 7.113281 -13.203125 7.5625 -13.203125 L 7.5625 -10.34375 C 6.78125 -10.34375 6.054688 -10.160156 5.390625 -9.796875 C 4.722656 -9.429688 4.179688 -8.9375 3.765625 -8.3125 L 3.765625 0 L 0.90625 0 L 0.90625 -12.921875 Z M 3.765625 -12.921875 "/></g></g></g><g clip-path="url(#5d48e5e6d8)"><path fill="#ff0000" d="M 42.867188 14.851562 C 42.585938 13.148438 41.113281 11.839844 39.332031 11.839844 L 37.136719 11.839844 L 39.984375 5.671875 C 40.152344 5.3125 39.992188 4.882812 39.632812 4.71875 C 39.269531 4.550781 38.84375 4.710938 38.675781 5.070312 L 35.554688 11.839844 L 35.464844 11.839844 L 33.695312 15.375 C 34.070312 15.765625 34.300781 16.289062 34.300781 16.867188 C 34.300781 18.058594 33.335938 19.023438 32.144531 19.023438 C 30.957031 19.023438 29.992188 18.058594 29.992188 16.867188 C 29.992188 15.679688 30.957031 14.714844 32.144531 14.714844 C 32.234375 14.714844 32.320312 14.730469 32.40625 14.738281 L 33.859375 11.839844 L 30.433594 11.839844 L 27.039062 5.050781 C 26.863281 4.695312 26.429688 4.550781 26.074219 4.730469 C 25.722656 4.90625 25.578125 5.339844 25.753906 5.695312 L 28.828125 11.839844 L 24.960938 11.839844 C 22.980469 11.839844 21.367188 13.449219 21.367188 15.429688 L 21.367188 35.550781 C 21.367188 37.53125 22.980469 39.144531 24.960938 39.144531 L 39.332031 39.144531 C 41.113281 39.144531 42.585938 37.835938 42.867188 36.132812 C 42.902344 35.941406 42.925781 35.75 42.925781 35.550781 L 42.925781 15.429688 C 42.925781 15.234375 42.902344 15.039062 42.867188 14.851562 Z M 39.332031 34.832031 L 24.960938 34.832031 C 24.5625 34.832031 24.242188 34.511719 24.242188 34.113281 C 24.242188 33.71875 24.5625 33.394531 24.960938 33.394531 L 39.332031 33.394531 C 39.726562 33.394531 40.050781 33.71875 40.050781 34.113281 C 40.050781 34.511719 39.726562 34.832031 39.332031 34.832031 Z M 26.222656 24.792969 C 26.609375 24.695312 27 24.933594 27.09375 25.316406 L 27.835938 28.277344 L 28.574219 25.316406 C 28.671875 24.933594 29.058594 24.695312 29.445312 24.792969 C 29.832031 24.890625 30.066406 25.28125 29.96875 25.664062 L 28.53125 31.414062 C 28.453125 31.734375 28.164062 31.957031 27.835938 31.957031 C 27.503906 31.957031 27.21875 31.734375 27.136719 31.414062 L 25.699219 25.664062 C 25.605469 25.28125 25.839844 24.890625 26.222656 24.792969 Z M 31.425781 31.238281 L 31.425781 25.492188 C 31.425781 25.09375 31.75 24.773438 32.144531 24.773438 C 32.542969 24.773438 32.863281 25.09375 32.863281 25.492188 L 32.863281 31.238281 C 32.863281 31.636719 32.542969 31.957031 32.144531 31.957031 C 31.75 31.957031 31.425781 31.636719 31.425781 31.238281 Z M 34.300781 31.238281 L 34.300781 25.492188 C 34.300781 25.09375 34.625 24.773438 35.019531 24.773438 L 36.457031 24.773438 C 37.644531 24.773438 38.613281 25.738281 38.613281 26.929688 C 38.613281 28.117188 37.644531 29.082031 36.457031 29.082031 L 35.738281 29.082031 L 35.738281 31.238281 C 35.738281 31.636719 35.417969 31.957031 35.019531 31.957031 C 34.625 31.957031 34.300781 31.636719 34.300781 31.238281 Z M 39.332031 23.335938 L 24.960938 23.335938 C 24.5625 23.335938 24.242188 23.011719 24.242188 22.617188 C 24.242188 22.21875 24.5625 21.898438 24.960938 21.898438 L 39.332031 21.898438 C 39.726562 21.898438 40.050781 22.21875 40.050781 22.617188 C 40.050781 23.011719 39.726562 23.335938 39.332031 23.335938 Z M 39.332031 23.335938 " fill-opacity="1" fill-rule="nonzero"/></g><path fill="#ff0000" d="M 37.175781 26.929688 C 37.175781 26.53125 36.855469 26.210938 36.457031 26.210938 L 35.738281 26.210938 L 35.738281 27.648438 L 36.457031 27.648438 C 36.855469 27.648438 37.175781 27.324219 37.175781 26.929688 Z M 37.175781 26.929688 " fill-opacity="1" fill-rule="nonzero"/><g fill="#ffffff" fill-opacity="1"><g transform="translate(26.35078, 37.476262)"><g><path d="M 1.21875 0.03125 C 1.019531 0.03125 0.847656 -0.0078125 0.703125 -0.09375 C 0.554688 -0.1875 0.441406 -0.320312 0.359375 -0.5 C 0.273438 -0.675781 0.234375 -0.894531 0.234375 -1.15625 C 0.234375 -1.414062 0.273438 -1.632812 0.359375 -1.8125 C 0.453125 -1.988281 0.578125 -2.117188 0.734375 -2.203125 C 0.890625 -2.296875 1.070312 -2.34375 1.28125 -2.34375 C 1.5 -2.34375 1.675781 -2.300781 1.8125 -2.21875 C 1.957031 -2.144531 2.0625 -2.023438 2.125 -1.859375 L 1.953125 -1.765625 L 1.90625 -1.765625 C 1.851562 -1.878906 1.773438 -1.960938 1.671875 -2.015625 C 1.566406 -2.066406 1.4375 -2.09375 1.28125 -2.09375 C 0.769531 -2.09375 0.515625 -1.78125 0.515625 -1.15625 C 0.515625 -0.820312 0.578125 -0.582031 0.703125 -0.4375 C 0.835938 -0.289062 1.019531 -0.21875 1.25 -0.21875 C 1.457031 -0.21875 1.613281 -0.265625 1.71875 -0.359375 C 1.820312 -0.453125 1.875 -0.601562 1.875 -0.8125 L 1.875 -1.015625 L 1.21875 -1.015625 L 1.21875 -1.234375 L 2.140625 -1.234375 L 2.140625 0 L 1.890625 0 L 1.890625 -0.3125 L 1.859375 -0.3125 C 1.796875 -0.195312 1.707031 -0.109375 1.59375 -0.046875 C 1.488281 0.00390625 1.363281 0.03125 1.21875 0.03125 Z M 1.21875 0.03125 "/></g></g></g><g fill="#ffffff" fill-opacity="1"><g transform="translate(28.750525, 37.476262)"><g><path d="M 0.34375 0 L 0.34375 -2.3125 L 1.1875 -2.3125 C 1.34375 -2.3125 1.472656 -2.285156 1.578125 -2.234375 C 1.679688 -2.179688 1.757812 -2.109375 1.8125 -2.015625 C 1.863281 -1.921875 1.890625 -1.8125 1.890625 -1.6875 C 1.890625 -1.539062 1.851562 -1.421875 1.78125 -1.328125 C 1.707031 -1.234375 1.597656 -1.164062 1.453125 -1.125 L 1.453125 -1.09375 C 1.523438 -1.0625 1.582031 -1.015625 1.625 -0.953125 C 1.675781 -0.890625 1.722656 -0.796875 1.765625 -0.671875 L 1.984375 0 L 1.703125 0 L 1.46875 -0.703125 C 1.4375 -0.785156 1.398438 -0.847656 1.359375 -0.890625 C 1.328125 -0.941406 1.285156 -0.976562 1.234375 -1 C 1.179688 -1.019531 1.113281 -1.03125 1.03125 -1.03125 L 0.625 -1.03125 L 0.625 0 Z M 1.1875 -1.265625 C 1.320312 -1.265625 1.425781 -1.296875 1.5 -1.359375 C 1.570312 -1.429688 1.609375 -1.535156 1.609375 -1.671875 C 1.609375 -1.804688 1.570312 -1.90625 1.5 -1.96875 C 1.425781 -2.039062 1.320312 -2.078125 1.1875 -2.078125 L 0.625 -2.078125 L 0.625 -1.265625 Z M 1.1875 -1.265625 "/></g></g></g><g fill="#ffffff" fill-opacity="1"><g transform="translate(30.888193, 37.476262)"><g><path d="M 1.265625 0.03125 C 1.066406 0.03125 0.890625 -0.0078125 0.734375 -0.09375 C 0.578125 -0.175781 0.453125 -0.304688 0.359375 -0.484375 C 0.273438 -0.671875 0.234375 -0.894531 0.234375 -1.15625 C 0.234375 -1.414062 0.273438 -1.632812 0.359375 -1.8125 C 0.453125 -1.988281 0.578125 -2.117188 0.734375 -2.203125 C 0.890625 -2.296875 1.066406 -2.34375 1.265625 -2.34375 C 1.460938 -2.34375 1.640625 -2.296875 1.796875 -2.203125 C 1.953125 -2.117188 2.070312 -1.988281 2.15625 -1.8125 C 2.25 -1.632812 2.296875 -1.414062 2.296875 -1.15625 C 2.296875 -0.894531 2.25 -0.671875 2.15625 -0.484375 C 2.070312 -0.304688 1.953125 -0.175781 1.796875 -0.09375 C 1.640625 -0.0078125 1.460938 0.03125 1.265625 0.03125 Z M 1.265625 -0.21875 C 1.503906 -0.21875 1.6875 -0.289062 1.8125 -0.4375 C 1.945312 -0.59375 2.015625 -0.832031 2.015625 -1.15625 C 2.015625 -1.476562 1.945312 -1.710938 1.8125 -1.859375 C 1.6875 -2.015625 1.503906 -2.09375 1.265625 -2.09375 C 0.765625 -2.09375 0.515625 -1.78125 0.515625 -1.15625 C 0.515625 -0.53125 0.765625 -0.21875 1.265625 -0.21875 Z M 1.265625 -0.21875 "/></g></g></g><g fill="#ffffff" fill-opacity="1"><g transform="translate(33.420556, 37.476262)"><g><path d="M 1.1875 0.03125 C 0.90625 0.03125 0.691406 -0.0351562 0.546875 -0.171875 C 0.398438 -0.316406 0.328125 -0.535156 0.328125 -0.828125 L 0.328125 -2.3125 L 0.59375 -2.3125 L 0.59375 -0.828125 C 0.59375 -0.617188 0.640625 -0.460938 0.734375 -0.359375 C 0.835938 -0.265625 0.988281 -0.21875 1.1875 -0.21875 C 1.582031 -0.21875 1.78125 -0.421875 1.78125 -0.828125 L 1.78125 -2.3125 L 2.046875 -2.3125 L 2.046875 -0.828125 C 2.046875 -0.535156 1.972656 -0.316406 1.828125 -0.171875 C 1.679688 -0.0351562 1.46875 0.03125 1.1875 0.03125 Z M 1.1875 0.03125 "/></g></g></g><g fill="#ffffff" fill-opacity="1"><g transform="translate(35.799777, 37.476262)"><g><path d="M 1.171875 -2.3125 C 1.328125 -2.3125 1.460938 -2.28125 1.578125 -2.21875 C 1.691406 -2.164062 1.78125 -2.085938 1.84375 -1.984375 C 1.90625 -1.878906 1.9375 -1.753906 1.9375 -1.609375 C 1.9375 -1.460938 1.90625 -1.335938 1.84375 -1.234375 C 1.78125 -1.128906 1.691406 -1.046875 1.578125 -0.984375 C 1.460938 -0.929688 1.328125 -0.90625 1.171875 -0.90625 L 0.625 -0.90625 L 0.625 0 L 0.34375 0 L 0.34375 -2.3125 Z M 1.171875 -1.140625 C 1.492188 -1.140625 1.65625 -1.296875 1.65625 -1.609375 C 1.65625 -1.921875 1.492188 -2.078125 1.171875 -2.078125 L 0.625 -2.078125 L 0.625 -1.140625 Z M 1.171875 -1.140625 "/></g></g></g></svg>